Coordinates
version=1
nRows=24
nColumns=24
inDegrees=yes

Units are S.I. units (second, meters, Newtons, ...)
Angles are in degrees.

endheader
time	pelvis_tilt	pelvis_list	pelvis_rotation	pelvis_tx	pelvis_ty	pelvis_tz	hip_flexion_r	hip_adduction_r	hip_rotation_r	knee_angle_r	ankle_angle_r	subtalar_angle_r	mtp_angle_r	hip_flexion_l	hip_adduction_l	hip_rotation_l	knee_angle_l	ankle_angle_l	subtalar_angle_l	mtp_angle_l	lumbar_extension	lumbar_bending	lumbar_rotation
      3.10000000	     -3.45487881	     -2.98065582	     -3.23158326	      0.32052629	      0.99411520	     -0.03368286	     15.22023250	     -0.92230790	      2.83179460	     11.24779590	     -4.75686825	      0.00000000	      0.00000000	     -4.83425395	     -1.08821075	      1.00028673	    -14.93499293	     16.90086684	      0.00000000	      0.00000000	    -11.10143792	     11.98591389	      2.76386499
      3.11000000	     -3.33308670	     -3.17116541	     -3.14784945	      0.32173086	      0.99357117	     -0.03221527	     15.12344669	     -0.52744838	      3.03825298	     10.53518016	     -4.55087343	      0.00000000	      0.00000000	     -5.07010186	     -1.36733661	      0.93469320	    -15.84628034	     16.96627296	      0.00000000	      0.00000000	    -11.16758797	     12.33743803	      2.74511709
      3.12000000	     -3.29581435	     -3.48108378	     -3.00259425	      0.32305052	      0.99299684	     -0.03073654	     15.09841529	     -0.01859540	      3.29300964	      9.65620883	     -4.60158475	      0.00000000	      0.00000000	     -5.12651750	     -1.78993625	      0.95554435	    -16.96638660	     17.14611931	      0.00000000	      0.00000000	    -11.11803573	     12.84820369	      2.68631633
      3.13000000	     -3.16596805	     -3.66666875	     -2.87566168	      0.32449887	      0.99269893	     -0.02922368	     14.97184736	      0.36972381	      3.63506248	      8.70215089	     -4.97576037	      0.00000000	      0.00000000	     -5.31234229	     -2.07027692	      1.04313574	    -17.99162638	     16.91978570	      0.00000000	      0.00000000	    -11.15554174	     13.21353730	      2.61660621
      3.14000000	     -3.22118803	     -4.10867893	     -2.62705535	      0.32599379	      0.99218433	     -0.02764845	     15.03545626	      0.99566011	      3.94297017	      7.62391053	     -5.40534954	      0.00000000	      0.00000000	     -5.03210012	     -2.68794447	      0.94690249	    -19.59554946	     17.09567203	      0.00000000	      0.00000000	    -10.96476366	     13.89829579	      2.47566315
      3.15000000	     -3.04870817	     -4.29973087	     -2.45584641	      0.32767603	      0.99218309	     -0.02615811	     14.83959504	      1.34608782	      4.40608961	      6.61011318	     -5.95288441	      0.00000000	      0.00000000	     -5.17236273	     -2.98990502	      1.03931056	    -20.76704336	     16.61187824	      0.00000000	      0.00000000	    -11.02329419	     14.29618101	      2.40910775
      3.16000000	     -2.98409404	     -4.75660551	     -2.24976718	      0.32941944	      0.99209700	     -0.02452299	     14.72251293	      1.95503990	      4.82661304	      5.63018820	     -6.49435691	      0.00000000	      0.00000000	     -4.97690195	     -3.62592561	      0.93103289	    -22.42186143	     16.38094991	      0.00000000	      0.00000000	    -10.95904352	     14.99409122	      2.34474924
      3.17000000	     -2.98482081	     -5.00691194	     -2.02872435	      0.33112128	      0.99204611	     -0.02299109	     14.71070196	      2.33143735	      5.15644093	      4.64136884	     -6.95638772	      0.00000000	      0.00000000	     -4.63535882	     -4.04340962	      0.89168059	    -24.13539608	     15.80146330	      0.00000000	      0.00000000	    -10.80007368	     15.46952059	      2.24436341
      3.18000000	     -2.79577837	     -5.13050608	     -1.87169503	      0.33298836	      0.99248172	     -0.02151246	     14.42756025	      2.55582602	      5.52764973	      3.80510886	     -7.23523451	      0.00000000	      0.00000000	     -4.56146123	     -4.30441248	      0.83538930	    -25.65300100	     14.82626213	      0.00000000	      0.00000000	    -10.86397461	     15.80044059	      2.22507764
      3.19000000	     -2.56556964	     -5.14641345	     -1.69726669	      0.33483588	      0.99315518	     -0.02007263	     14.09035826	      2.62347134	      6.06250793	      2.99567932	     -7.51762328	      0.00000000	      0.00000000	     -4.54078221	     -4.43991948	      0.95094718	    -27.05805469	     13.81716987	      0.00000000	      0.00000000	    -10.96980865	     16.01242574	      2.16262699
      3.20000000	     -2.62220305	     -5.50812887	     -1.66204994	      0.33647265	      0.99340625	     -0.01832273	     14.15460163	      3.14850322	      6.16889462	      1.95555495	     -7.23402727	      0.00000000	      0.00000000	     -3.73902783	     -5.02300410	      0.56458903	    -29.46136338	     12.55382252	      0.00000000	      0.00000000	    -10.83894475	     16.58431234	      2.36953211
      3.21000000	     -2.34094315	     -5.40359656	     -1.56487818	      0.33818511	      0.99437678	     -0.01686204	     13.69532255	      3.10373704	      6.59296117	      1.28194668	     -7.31071577	      0.00000000	      0.00000000	     -3.50644423	     -5.02964118	      0.62512512	    -31.25348455	     11.18131253	      0.00000000	      0.00000000	    -11.05053912	     16.64383000	      2.41961499
      3.22000000	     -2.56440724	     -5.64213273	     -1.57250073	      0.33956766	      0.99457817	     -0.01506523	     14.06864031	      3.53060204	      6.69460286	     -0.09210963	     -6.47373780	      0.00000000	      0.00000000	     -2.34006797	     -5.52667063	      0.26039865	    -33.79596608	      9.39189283	      0.00000000	      0.00000000	    -10.77191056	     17.07142669	      2.66886574
      3.23000000	     -2.21364941	     -5.49468550	     -1.49983670	      0.34108827	      0.99573268	     -0.01342004	     13.46834932	      3.47780613	      7.04324962	     -0.68283302	     -6.41037255	      0.00000000	      0.00000000	     -1.89587436	     -5.53426986	      0.25871979	    -35.97040357	      7.69684663	      0.00000000	      0.00000000	    -11.10950575	     17.02394615	      2.78986764
      3.24000000	     -2.37668695	     -5.65846065	     -1.46148512	      0.34245753	      0.99614678	     -0.01153311	     13.70425232	      3.84882092	      7.13297656	     -1.99249052	     -5.50305995	      0.00000000	      0.00000000	     -0.69329118	     -5.99455786	      0.03701483	    -38.45358755	      5.41761699	      0.00000000	      0.00000000	    -10.88026648	     17.33045612	      2.95432556
      3.25000000	     -2.09112130	     -5.66325078	     -1.38520637	      0.34382376	      0.99724003	     -0.00981388	     13.17666932	      4.00237078	      7.29748761	     -2.67293450	     -5.10277470	      0.00000000	      0.00000000	      0.01736905	     -6.24399366	     -0.05545724	    -40.80223002	      3.17819741	      0.00000000	      0.00000000	    -11.17851782	     17.43472107	      3.12168393
      3.26000000	     -2.14722217	     -5.71353170	     -1.28756908	      0.34488281	      0.99769411	     -0.00808200	     13.20696466	      4.23998452	      7.28443317	     -3.77285031	     -4.34246224	      0.00000000	      0.00000000	      1.29932125	     -6.58270441	     -0.10262961	    -43.46501143	      1.06835649	      0.00000000	      0.00000000	    -11.09510756	     17.58782449	      3.22537459
      3.27000000	     -1.84412719	     -5.70708199	     -1.14188466	      0.34601039	      0.99873336	     -0.00654880	     12.57393270	      4.35994496	      7.29006468	     -4.27401725	     -3.88280977	      0.00000000	      0.00000000	      2.15094469	     -6.84409485	     -0.09021216	    -45.90474964	     -1.22543645	      0.00000000	      0.00000000	    -11.41825008	     17.66835392	      3.34251153
      3.28000000	     -1.79468610	     -5.78663580	     -0.92905627	      0.34690151	      0.99927712	     -0.00510179	     12.32006667	      4.56875689	      7.03846576	     -4.99684394	     -3.24813133	      0.00000000	      0.00000000	      3.40683641	     -7.23268012	     -0.01886291	    -48.49194612	     -3.36477573	      0.00000000	      0.00000000	    -11.44627764	     17.85035263	      3.35197760
      3.29000000	     -1.54620909	     -5.76449525	     -0.72127889	      0.34767869	      1.00016268	     -0.00391081	     11.64342635	      4.62252422	      6.92636380	     -5.24340363	     -2.67978716	      0.00000000	      0.00000000	      4.40571983	     -7.45041421	      0.12447027	    -50.88607304	     -5.39483409	      0.00000000	      0.00000000	    -11.73209269	     17.91620909	      3.47149051
      3.30000000	     -1.35697598	     -5.75172116	     -0.47330245	      0.34837552	      1.00089639	     -0.00280012	     11.03526933	      4.67002881	      6.66876326	     -5.49822553	     -2.18838402	      0.00000000	      0.00000000	      5.49479014	     -7.71355012	      0.22015600	    -53.24231043	     -6.96988582	      0.00000000	      0.00000000	    -11.92565152	     17.98530320	      3.45842747
      3.31000000	     -1.25588983	     -5.76806673	     -0.18303944	      0.34892620	      1.00152633	     -0.00190831	     10.47617180	      4.71835354	      6.31942115	     -5.64339114	     -1.67104548	      0.00000000	      0.00000000	      6.69416106	     -7.98657057	      0.38282868	    -55.49433161	     -8.15333754	      0.00000000	      0.00000000	    -12.01965398	     18.09072961	      3.47972023
      3.32000000	     -1.22242431	     -5.78437913	      0.11963443	      0.34931464	      1.00205808	     -0.00115915	      9.95169777	      4.75358697	      5.97780759	     -5.69432267	     -1.19900509	      0.00000000	      0.00000000	      7.95141469	     -8.23019624	      0.58363011	    -57.61054875	     -8.73454400	      0.00000000	      0.00000000	    -12.05218405	     18.20072871	      3.48483654
      3.33000000	     -1.12830319	     -5.70845840	      0.35094013	      0.34962230	      1.00276768	     -0.00044818	      9.31590635	      4.68778967	      5.82202730	     -5.64760627	     -0.79244936	      0.00000000	      0.00000000	      9.05942039	     -8.34134272	      0.73375268	    -59.46523091	     -8.70132892	      0.00000000	      0.00000000	    -12.17268518	     18.18476285	      3.58145069
